<?xml version="1.0" encoding="UTF-8"?>
<svg width="788px" height="788px" viewBox="0 0 788 788" version="1.1" xmlns="http://www.w3.org/2000/svg" xmlns:xlink="http://www.w3.org/1999/xlink">
    <!-- Generator: Sketch 52.5 (67469) - http://www.bohemiancoding.com/sketch -->
    <title>Group</title>
    <desc>Created with Sketch.</desc>
    <defs>
        <polygon id="path-1" points="0 1418.32 1417.323 1418.32 1417.323 0.997 0 0.997"></polygon>
    </defs>
    <g id="Page-1" stroke="none" stroke-width="1" fill="none" fill-rule="evenodd">
        <g id="90109-08-Vytautas" transform="translate(-315.000000, -315.000000)">
            <g id="Group" transform="translate(0.000000, -1.000000)">
                <path d="M903.2974,591.9012 C903.2974,591.9012 903.2974,591.9012 903.2984,591.9012 L903.2974,591.9012 C903.0474,591.4232 902.8424,591.0322 902.5924,590.5542 C902.6004,589.2672 901.6424,589.1342 900.8884,588.8832 C897.2194,587.6612 893.4044,586.8872 889.6044,586.5032 C883.4894,585.8832 877.4474,584.6722 871.2714,584.5072 C866.4724,584.3792 861.7704,583.1192 856.9794,582.7132 C847.6594,581.9222 838.4334,580.6072 829.3764,578.1652 C821.4834,576.0362 813.5884,573.7382 805.3374,573.5642 C801.6414,573.4862 797.9144,573.7612 794.2984,574.7562 C794.0994,574.9262 793.9754,575.0792 793.9014,575.2182 C792.3994,575.1882 790.9014,575.7532 789.3964,575.2552 C788.6104,575.0852 787.8254,574.9152 787.0404,574.7452 C785.5804,574.2172 784.1094,573.7562 782.5234,573.9822 C782.5084,573.9392 782.4964,573.8962 782.4724,573.8492 C781.4234,573.1792 780.2114,573.1552 779.0204,573.0442 C780.8904,571.6042 782.6404,570.1132 784.3614,568.5792 C789.7144,563.8102 795.4754,559.6982 802.4604,557.6112 C805.1324,556.8132 807.6574,555.7072 810.1004,554.3302 C815.4234,551.3282 820.4234,547.8382 825.4864,544.4402 C831.7814,540.2162 837.9464,535.7792 844.9144,532.6692 C845.0264,532.5172 845.1464,532.3702 845.2624,532.2212 C845.5414,532.1372 845.8194,532.0482 846.0704,531.9122 C849.0194,530.3162 851.9534,529.7422 855.3404,530.8182 C860.1834,532.3592 864.3254,529.9202 868.4284,527.7552 C871.4794,527.9522 873.9884,526.5182 876.4494,525.0182 C877.1714,524.5782 877.1224,523.7272 876.8794,522.9852 C876.6514,522.2882 876.1654,521.8912 875.3754,521.8682 C873.2094,521.8052 871.0734,521.8492 868.9994,522.6462 C868.4104,522.8722 867.5984,523.8042 867.0844,522.7842 C866.6604,521.9442 867.0924,520.9432 867.9564,520.5732 C869.9464,519.7222 871.5944,518.3082 873.4934,517.3572 C876.9654,515.6192 880.4824,513.9462 884.3624,513.2252 C885.3504,513.0422 886.5794,512.4672 886.8324,511.6172 C887.3764,509.7872 889.2234,509.1822 889.9934,507.6572 C889.8664,505.8072 888.4684,506.6052 887.5454,506.5342 C886.9084,506.4842 886.1324,507.2222 885.6354,506.6282 C884.7404,505.5602 883.8294,506.1882 883.0734,506.5202 C875.4314,509.8842 867.6074,512.8222 860.0424,516.3702 C859.4674,516.6402 859.0954,517.0212 858.6724,517.3932 C858.6074,517.3032 858.5244,517.2282 858.4184,517.1722 C857.3614,516.7612 856.4064,517.2282 855.4744,517.5862 C851.8804,518.9632 848.1984,520.1112 844.6514,521.6022 C834.7834,525.7502 824.5894,529.0882 814.2084,531.6992 C807.9004,533.2852 801.6394,535.1882 795.7474,538.0752 C791.2134,540.2972 787.2504,543.3832 783.2004,546.3382 C781.9934,547.2192 780.8124,548.1602 779.3634,548.5982 C774.6364,550.0282 770.4154,552.4812 766.3274,555.1512 C763.9294,556.7182 761.5874,558.0562 758.5884,557.1972 C758.2094,557.0892 757.7784,557.1792 757.3734,557.2232 C751.8074,557.8292 746.7354,559.8402 741.9594,562.6782 C740.9334,563.2872 740.0844,564.1432 739.4384,565.1462 C737.3184,568.4342 733.9934,563.3442 729.3164,560.4242 C728.6844,560.0292 727.9714,559.7872 727.2374,559.6532 C723.6804,559.0092 722.3994,557.9652 722.3964,555.7322 C722.3934,553.5692 722.6334,551.3952 722.2054,549.2432 C722.1374,549.1142 722.0764,548.9832 722.0124,548.8522 C722.0744,548.5672 722.1354,548.2802 722.2224,548.0022 C722.9264,545.7442 722.2544,542.7572 725.4794,541.8302 L725.6934,541.4842 C728.2704,537.6492 727.8854,533.2602 727.8804,528.9912 C727.8784,527.5572 726.9754,526.4072 725.1244,527.1862 C725.1244,523.9812 725.2354,520.8702 725.0954,517.7692 C724.9344,514.1862 724.0754,510.8172 721.1044,508.3902 C720.3574,507.0022 718.8564,506.3832 717.8774,505.2312 C715.3764,503.7922 715.5544,503.8422 714.1664,503.5532 C710.0134,501.3222 705.8074,501.4822 701.5654,503.2752 C699.9164,504.0962 699.9164,503.5882 697.9294,505.2552 C697.6644,505.2272 697.5664,505.4442 697.4244,505.5992 C696.4524,506.2732 695.3354,506.7892 694.8514,507.9882 C692.0734,509.7682 691.1164,512.6072 690.5264,515.6072 C689.7524,519.5422 690.4324,523.5062 690.5684,527.5392 C688.6844,526.5922 688.0124,527.4592 687.6154,529.0692 C687.2754,530.4512 687.6294,531.7652 687.7984,533.0812 C688.1604,535.8702 687.9934,538.8312 689.9204,541.1942 C689.9284,541.3702 689.9434,541.5482 689.9724,541.7332 C690.0994,542.4792 690.5544,542.9812 691.2524,543.1652 C692.4764,543.4882 692.7454,544.3862 692.8304,545.4702 C693.1124,549.1132 693.3574,552.7552 693.3444,556.4142 C693.3404,557.4162 693.0444,558.0722 692.1584,558.5502 C687.9874,560.8052 683.9714,563.3242 679.8894,565.7322 C677.7854,566.9732 677.7454,566.8722 676.1004,565.0052 C675.2474,564.0352 674.2524,563.2102 673.0874,562.6252 C669.6934,560.9212 666.2304,559.4042 662.4974,558.5702 C660.5004,558.1252 658.4514,557.6372 656.4654,558.0592 C653.9374,558.5962 652.0384,557.6072 650.0224,556.3762 C646.3264,554.1202 642.6434,551.7432 638.5034,550.4192 C635.5994,549.4902 633.0524,548.1182 630.6554,546.2992 C627.4174,543.8412 624.0374,541.5872 620.4024,539.7362 C614.4424,536.7022 608.0364,534.8752 601.5914,533.3762 C590.2084,530.7282 579.1494,527.1882 568.3814,522.6762 C567.0254,522.1092 565.6784,521.3812 564.1124,521.5632 C563.9884,521.6282 563.8894,521.6942 563.8004,521.7612 C561.5694,521.0262 559.4424,519.9682 557.0914,519.6042 C556.8204,519.4212 556.5674,519.2002 556.2754,519.0602 C551.2334,516.6392 545.9354,514.8282 540.7594,512.7412 C536.1994,510.9022 531.8124,507.9722 526.4584,508.8912 C525.7654,509.0102 524.8324,508.5942 524.5414,509.5452 C524.2964,510.3442 524.8974,510.8772 525.4874,511.4032 C526.0554,511.9102 526.9664,511.9172 527.2264,512.9292 C527.5704,514.2732 528.7544,515.1162 529.9864,515.3792 C532.1164,515.8312 534.0454,516.8252 536.1084,517.3702 C540.0864,518.4232 543.1984,521.1202 546.8764,522.7162 C547.1574,522.8382 547.3634,523.1822 547.5564,523.4082 C547.8784,523.7852 548.0284,524.2892 547.8924,524.7652 C547.5954,525.8002 546.7994,525.2192 546.2734,524.9812 C544.4204,524.1412 542.4584,524.1902 540.4994,524.1682 C539.4014,524.1562 538.5484,524.3882 538.3164,525.7262 C538.0934,527.0032 538.7234,527.5902 539.7154,528.0902 C541.8424,529.1642 544.0184,530.0432 546.4474,530.0762 C548.0914,530.7922 549.7374,531.5042 551.3804,532.2242 C554.7564,533.7032 558.1904,533.7542 561.5974,532.4452 C563.1564,531.8462 564.5844,531.8992 566.0684,532.5372 C569.8304,534.1532 573.6894,535.5462 577.3614,537.3662 C577.5974,537.6522 577.8374,537.9352 578.0644,538.2292 C583.2224,542.0862 588.6474,545.5542 594.0614,549.0272 C598.7904,552.0602 603.4784,555.1772 608.6544,557.4692 C611.3374,558.6572 614.1934,559.2732 616.9034,560.3462 C624.3514,563.2972 630.0264,568.7592 636.2154,573.8032 C632.7284,574.1342 629.4454,574.5692 626.2574,575.5342 C625.3964,575.7952 624.5284,575.7142 623.6404,575.6122 C620.3454,575.2352 617.0554,574.8282 613.7394,574.6212 C605.0304,574.0782 596.8084,576.6032 588.5804,578.7862 C582.4064,580.4242 576.2454,582.0752 569.9044,582.7212 C558.7184,583.8612 547.6634,585.9592 536.4504,586.9342 C530.2694,587.4712 524.0744,588.3422 518.0184,589.8472 C516.5494,590.2132 514.9254,590.4212 513.9954,591.9042 C512.6724,592.9372 513.1534,593.6592 514.4004,594.2492 C518.3024,595.1572 522.3994,593.4462 526.2504,595.1172 C526.4184,595.1902 526.6624,595.1522 526.8534,595.1012 C529.7634,594.3152 532.7634,594.1372 535.7424,593.9652 C537.2674,593.8782 538.8694,594.0822 540.7934,594.9572 C538.7214,595.6182 537.0004,595.3922 535.5764,596.2582 C534.3164,597.0262 531.9894,596.8702 532.4824,599.2442 C532.9864,601.6762 535.1114,600.9132 536.6694,600.8802 C540.0414,600.8082 543.2594,599.5172 546.6994,599.6552 C550.3284,599.8002 553.4344,598.3642 555.8914,595.6682 C556.5734,594.9192 557.3744,594.5152 558.3284,594.3752 C563.7654,593.5752 569.2204,593.0492 574.7184,593.5902 C583.7464,594.4802 592.7664,595.4772 601.8394,595.7722 C606.0264,595.9082 610.2404,595.9522 614.3314,594.7972 C617.1544,594.0002 620.0374,593.7232 622.9434,593.5622 L622.9444,593.5622 C623.5134,593.6732 624.0834,593.7842 624.6524,593.8952 C624.9244,593.9052 625.1954,593.9152 625.4674,593.9252 C625.3264,594.8702 629.1844,593.9152 629.5504,594.2322 C630.2384,594.8062 630.9474,594.9692 631.6894,594.5342 C631.9064,594.7162 632.1394,594.8742 632.3974,594.9942 C632.3894,595.6082 633.2054,595.9552 633.1874,595.2062 C633.2614,595.2162 633.3344,595.2332 633.4094,595.2382 C634.4624,595.3052 635.5164,595.2662 636.5704,595.2632 C636.7264,595.2602 636.8814,595.2582 637.0364,595.2552 C637.1494,595.3412 637.2914,595.3422 637.4684,595.2402 C637.8264,595.2242 638.1774,595.1922 638.5184,595.1242 C638.6564,595.1532 638.8354,595.1912 638.9724,595.2202 C639.7634,595.8632 640.5664,595.6352 641.3734,595.1572 C641.6834,595.2032 641.9494,595.2422 642.2594,595.2882 L642.2654,595.2942 C642.9574,595.3852 643.6714,595.2192 644.3504,595.4712 C650.2844,595.5152 656.1754,597.1762 662.1434,595.9432 C662.9764,595.7702 662.9774,596.4292 663.1014,596.9192 C663.6324,599.0202 664.4204,601.0272 665.3214,602.9912 C669.4764,612.0522 673.8574,620.9682 675.8434,630.9182 C677.2594,638.0072 678.4884,644.8932 676.6194,652.0692 C675.9104,654.7882 675.4104,657.7392 675.7034,660.4902 C675.9974,663.2432 675.5134,665.6842 674.8024,668.2142 C674.5684,669.0502 674.4954,669.9332 674.3484,670.7942 C673.1514,676.3632 671.2144,681.7622 670.5234,687.4472 C669.6924,689.5762 668.9484,691.7432 668.0154,693.8262 C665.0364,700.4812 661.0724,706.6372 658.1864,713.3492 C655.8134,718.8702 653.8774,724.5422 651.8744,730.1942 C651.6914,730.4332 651.5584,730.6932 651.5314,730.9962 C651.5204,731.0022 651.5084,731.0052 651.4974,731.0102 C650.9754,731.5692 650.8424,732.2792 650.7334,732.9962 C650.7144,733.2802 650.7464,733.5552 650.8404,733.8232 C650.8254,733.8432 650.8104,733.8672 650.7974,733.8992 C650.1984,736.7062 649.5994,739.5122 648.9994,742.3182 C648.9994,742.3272 649.0004,742.3332 649.0004,742.3402 C648.9874,742.3292 648.9734,742.3202 648.9604,742.3082 C648.4704,742.3852 648.3234,742.7702 648.1964,743.1702 C648.1084,743.6992 647.9504,744.2122 647.8124,744.7272 C647.4404,746.4442 647.1284,748.1732 646.7304,749.8852 C646.5394,750.7062 646.3134,751.5622 646.8284,752.3252 L646.7924,752.3602 C646.5444,752.6732 646.3454,753.0122 646.2534,753.4062 C646.0244,753.9912 646.4804,754.5662 646.2794,755.1492 C645.3514,759.1762 643.6874,762.9432 642.0714,766.7142 C638.7554,774.4502 636.4614,782.6042 631.8854,789.8272 C626.4154,798.4632 621.8364,807.4562 620.2084,817.8352 C618.3224,829.8572 616.2374,841.8442 614.8334,853.9382 C614.3724,857.9002 613.9084,861.8702 613.2144,865.7962 C612.2644,871.1722 607.4774,874.6972 606.1474,879.9312 C606.0754,880.2132 605.6654,880.3962 605.4524,880.6572 C602.2064,884.6342 597.2724,885.5842 592.9494,887.6272 C592.0814,887.8362 592.3664,888.8682 591.7754,889.2742 C591.1754,890.7332 590.8984,891.8642 592.6964,892.9912 C594.3334,894.0172 595.8584,895.2002 597.5744,896.1682 C598.9164,896.9242 599.7154,898.1052 601.6374,897.3312 C602.0974,897.1452 603.3134,899.6412 604.9554,899.7882 C607.6264,900.0252 610.2704,899.7772 612.8504,898.9942 C614.2894,898.9672 613.6084,897.6262 614.0844,897.0032 C614.5624,896.2862 614.6794,895.3872 615.4354,894.7922 C616.9974,893.5582 618.0244,891.8872 619.0294,890.1872 C620.7374,887.2972 621.6234,884.0182 623.3964,881.1592 C624.4164,879.5132 625.0134,877.6352 625.1604,875.7062 C625.8484,866.6992 628.7574,858.2802 632.2724,850.0882 C635.2954,843.0432 637.8944,835.7232 643.1254,829.8322 C643.6374,829.2552 643.8924,828.4022 644.1294,827.6342 C645.7434,822.4112 647.4594,817.2152 648.3064,811.7862 C648.9444,807.6972 649.8244,803.6832 652.3384,800.2352 C657.4304,793.2482 661.9144,785.8532 666.6754,778.6452 C668.1864,776.3572 669.1634,773.7172 670.4354,771.2652 C670.5924,770.9632 670.5004,769.8872 671.4134,770.6532 C671.3504,770.9802 671.2384,771.3052 671.2324,771.6332 C671.2204,772.1992 671.2104,772.7642 671.1984,773.3302 C671.1944,773.4632 671.1924,773.5942 671.1904,773.7262 C671.0424,780.9452 670.9014,788.1642 670.7584,795.3822 C670.7244,797.0752 670.6174,798.7522 670.3634,800.4362 C669.3064,807.4562 667.8074,814.4122 667.3624,821.5212 C666.7414,831.4652 669.3464,840.9922 671.0864,850.6302 C671.5594,852.9362 671.9604,855.2582 672.5174,857.5432 C674.6574,866.3252 676.8774,875.0882 679.0044,883.8732 C679.8864,887.5202 680.3064,891.2122 678.7134,894.7962 C677.9954,896.4102 677.9314,898.0472 678.0944,899.7522 C678.4194,903.1512 677.0044,906.0202 675.3454,908.8412 C674.2174,910.7622 671.6564,911.7742 671.7734,914.4752 C672.7474,914.2942 673.5224,914.9592 674.4544,915.0982 C680.3714,915.9822 686.3424,916.2752 692.2804,916.9142 C693.2104,917.0142 694.1794,917.0612 695.0444,916.5342 C695.9484,915.7662 696.0364,914.6462 695.7284,913.7342 C694.8474,911.1232 695.5214,908.5452 695.6164,905.9562 C695.7434,902.4682 694.7424,899.0052 695.3854,895.5042 C695.5964,894.3562 695.4724,893.1712 695.0834,892.0702 C694.1834,889.5242 693.3394,886.9552 693.0104,884.2542 C691.9604,875.6262 691.6214,866.9722 692.2434,858.3012 C692.5334,854.2582 692.1444,850.0182 693.5644,846.2372 C695.5104,841.0532 695.2234,835.9322 694.5984,830.6892 C694.5804,827.9162 694.1264,825.1882 693.5414,822.4992 C692.3454,817.0002 691.2944,811.5532 693.4554,806.0172 C694.4834,803.3832 694.7924,800.5552 695.0074,797.7382 C696.1114,793.4272 697.4134,789.1552 698.2754,784.7972 C699.7504,777.3332 699.7764,769.7302 700.0264,762.1512 C700.1424,758.6552 700.0344,755.1452 701.0424,751.6872 C702.5334,746.5702 703.8654,741.3992 704.8674,736.1552 C706.4874,727.6712 708.1434,719.1872 706.9244,710.4722 C706.8744,710.1072 706.6704,709.5132 707.2144,709.4592 C708.0694,709.3742 709.0464,709.2792 709.7804,709.6112 C710.4004,709.8912 710.0784,710.8572 709.9734,711.4962 C709.5864,713.8312 709.1154,716.1362 709.3024,718.5432 C709.8544,725.6312 710.5324,732.7142 712.4454,739.5772 C715.2194,749.5292 716.8394,759.5732 716.7644,769.9582 C716.7084,777.5822 717.4134,785.2172 720.1684,792.4772 C721.3664,797.3052 721.4034,802.3712 723.1664,807.0832 C723.9054,809.8332 724.5024,812.6402 724.1744,815.4732 C723.8034,818.6882 722.9514,821.8462 722.5584,825.0592 C721.6694,832.3252 719.9444,839.6342 723.1224,846.8092 C723.3354,847.2912 723.4154,847.8552 723.4534,848.3882 C724.0204,856.2872 724.7704,864.1872 724.2754,872.1132 C723.9204,877.7702 723.9204,883.4882 722.1984,888.9822 C721.6934,890.5922 721.0464,892.1632 721.1434,893.9062 C721.5114,900.5592 721.3254,907.2072 720.9044,913.8522 C720.8554,914.6442 720.8024,915.4802 721.4154,916.1442 C723.1064,917.6982 724.9854,916.6402 726.7984,916.5412 C732.2464,916.2402 737.6654,915.6632 743.0594,914.8402 C743.8584,914.7182 744.7264,914.6762 744.7504,913.5422 C744.4754,912.4512 743.7924,911.6712 742.9904,910.8942 C740.2044,908.1962 738.7524,904.7952 738.6124,900.9812 C738.5284,898.7072 738.2194,896.5602 737.3844,894.4662 C736.3224,891.8062 736.1774,889.0542 736.8364,886.3012 C738.7844,878.1632 740.7654,870.0302 742.8024,861.9132 C744.1774,856.4292 745.5504,850.9502 746.2774,845.3342 C746.9574,843.8302 746.9444,842.1742 747.3014,840.5992 C749.2594,831.9432 749.8574,823.2422 748.4014,814.4202 C747.0954,806.5082 745.1554,798.7102 745.5314,790.5332 C745.8414,783.8022 745.2934,777.0322 745.1494,770.2792 C745.1344,769.5902 744.8954,768.8042 745.6474,768.2162 C748.4384,774.4612 750.9954,780.7952 755.6524,785.9372 C758.6074,790.4492 760.8794,795.3802 764.3244,799.6002 C766.3404,802.0702 767.7214,804.9452 768.2244,808.1782 C768.6084,810.6492 768.9394,813.1452 769.5804,815.5542 C771.2644,821.8662 772.0854,828.5622 777.0284,833.5222 C777.2154,833.7092 777.4674,834.0512 777.5834,834.2892 C781.4044,842.1222 785.3484,849.9062 787.9544,858.2602 C789.5014,863.2182 791.3584,868.1142 791.4174,873.4162 C790.4944,872.8082 790.7264,874.5432 791.4404,873.9912 C791.4644,874.1702 791.4894,874.3482 791.5144,874.5282 C791.6404,874.9712 791.7654,875.4152 791.8914,875.8582 L791.7974,876.6672 C794.4144,881.8122 797.0324,886.9572 799.6504,892.1022 C799.7424,892.7722 800.3954,892.9412 800.7734,893.3562 C800.8884,893.3692 801.0014,893.3902 801.1134,893.4202 C801.1444,893.4252 801.1704,893.4262 801.1994,893.4312 C801.0964,894.6952 802.5984,894.9212 802.9334,895.9002 C803.0344,896.0222 803.1424,896.1322 803.2714,896.1912 C803.2914,896.3412 803.3194,896.4912 803.3644,896.6352 C803.6224,897.2652 803.7184,898.0052 804.4914,898.2822 C806.2374,899.0712 808.1844,898.4682 809.9494,899.0452 C811.6904,899.6132 813.3594,899.3242 814.7704,898.3682 C815.9524,897.5662 816.6484,895.9062 818.5334,896.7642 C818.7014,896.8402 819.0424,896.6182 819.2664,896.4762 C820.9244,895.4212 822.6334,894.4332 824.2104,893.2672 C826.9304,891.2552 827.1484,890.2432 825.6804,887.7232 C825.4954,887.2752 825.1564,886.9812 824.7284,886.7772 C823.1474,886.8312 822.0644,885.6162 820.6454,885.1712 C815.5854,883.5812 810.9824,881.2892 809.1074,875.7312 C808.5804,874.1712 807.6344,872.8422 806.5554,871.6222 C804.5964,869.4072 803.6184,866.7602 803.2924,863.8962 C801.5894,848.9722 799.6884,834.0852 797.1914,819.2612 C795.3544,808.3572 791.3254,798.5402 784.9854,789.5812 C783.5014,786.4922 781.3994,783.7202 780.2894,780.4382 C778.3044,774.5682 775.8254,768.8882 773.5684,763.1242 L772.9264,761.3822 C772.9664,761.3852 773.0064,761.3892 773.0464,761.3972 L772.8784,761.1982 C772.9054,761.2412 772.9104,761.2822 772.9044,761.3232 L771.7454,758.1782 C771.7284,758.2472 771.7224,758.3162 771.7164,758.3852 C771.6544,758.3572 771.5994,758.3212 771.5504,758.2692 C771.5974,758.2392 771.6434,758.2082 771.6904,758.1632 C772.1414,757.3682 771.4004,756.8682 771.2094,756.2322 C771.0634,755.7952 770.9164,755.3572 770.7704,754.9192 C770.7394,754.2952 770.7094,753.6702 770.6794,753.0462 C770.2344,752.3532 770.7184,751.6672 770.6884,750.9762 C770.5824,750.2822 770.4184,749.5992 770.2984,748.9092 C770.1894,748.3022 769.7604,747.8422 769.5494,747.2842 C769.3704,746.5622 769.1734,745.8442 769.0164,745.1182 C767.3364,737.3892 765.4404,729.7302 762.6854,722.2902 C759.3934,713.3962 755.3304,704.8912 750.4314,696.7782 C749.7654,695.1612 748.9834,693.5812 748.4504,691.9202 C745.4854,682.6732 742.9594,673.3022 740.7494,663.8462 C740.6444,663.3962 740.5724,662.8732 740.6944,662.4432 C741.4934,659.6532 740.6654,656.9262 740.3684,654.1982 C739.9084,649.9732 738.1794,645.7722 738.7964,641.5692 C740.2644,631.5762 741.9384,621.6072 746.5804,612.3942 C749.1834,607.2282 751.7474,601.9862 753.1614,596.3182 C753.4374,595.2132 754.0984,595.5212 754.6734,595.6072 C757.9894,596.1072 761.2894,595.8472 764.5914,595.4822 L765.4114,595.5982 C766.1064,595.5742 766.7464,595.2812 767.4274,595.1882 C767.6034,595.2122 767.8654,595.2482 768.0414,595.2722 C768.3844,595.4252 768.7244,595.5892 769.1144,595.5922 C769.6524,595.5382 770.1964,595.4982 770.3914,594.8502 C770.3804,594.8272 770.3664,594.8062 770.3554,594.7852 C770.3634,594.7842 770.3714,594.7852 770.3804,594.7842 C771.4504,595.5672 772.6364,595.2622 773.8004,595.1392 C774.5354,594.8602 775.3714,594.9212 776.0464,594.4502 C776.0654,594.4282 776.0764,594.4062 776.0934,594.3842 C776.2194,594.5222 776.3624,594.6372 776.5424,594.7082 C777.3364,594.9582 778.1514,594.9242 778.9604,594.8602 C782.9344,594.5452 786.8614,593.8192 790.8354,593.5052 C791.0594,593.4072 791.2684,593.2852 791.4604,593.1352 C791.5904,593.1082 791.7204,593.0932 791.8504,593.0732 C792.3124,593.2372 792.8564,593.2902 793.4964,593.2412 C794.7744,593.1432 796.0704,593.1552 797.3534,593.3192 C797.5674,593.3292 797.7674,593.2812 797.9524,593.1732 C798.1754,593.4012 798.6054,593.7212 797.7354,593.6112 C796.5914,593.4652 795.3914,593.5862 795.0374,595.0712 C795.1784,595.2802 795.3424,595.3012 795.5314,595.1322 C796.4324,594.9182 797.4174,594.9042 798.2444,594.6382 C799.6634,594.1802 801.1374,595.3032 802.4444,594.2992 C803.4334,594.2022 804.3844,594.3322 805.2874,594.7602 C805.5644,594.7232 805.8404,594.6862 806.1164,594.6482 C813.7224,595.1362 821.2764,594.3882 828.8344,593.7012 C838.2544,592.8452 847.6564,591.3202 857.1514,593.0182 C858.6244,593.2812 860.0124,593.9422 861.0974,594.9702 C863.0484,596.8202 865.3964,597.9642 868.1144,598.1392 C871.4854,598.3552 874.8604,598.3602 878.1874,599.1672 C879.4644,599.4772 880.8944,599.3322 882.2304,599.1802 C883.6004,599.0252 884.4644,597.2652 883.6974,596.2852 C883.3104,595.7892 882.6144,595.5162 882.0314,595.1922 C880.1464,594.1432 878.0094,593.8722 875.9224,593.3662 C878.6444,592.0102 881.4854,592.5442 884.2564,592.5452 C887.0954,592.5462 889.9724,594.6172 892.7784,592.3302 C892.9534,592.1882 893.4364,592.3372 893.7364,592.4512 C896.7874,593.6112 899.8024,592.3322 902.8344,592.3362 C902.9874,592.3062 903.1424,592.2762 903.2964,592.2462 C903.5694,592.5272 903.8434,592.8082 904.1164,593.0882 L904.1164,591.4702 C903.8444,591.6142 903.5704,591.7572 903.2974,591.9012" id="Fill-1" fill="#313433"></path>
                <path d="M773.187,761.4354 C773.14,761.4184 773.093,761.4074 773.046,761.3974 L773.334,761.7374 C773.314,761.6334 773.268,761.5334 773.187,761.4354" id="Fill-3" fill="#313433"></path>
                <path d="M1029.9185,766.6229 C1033.2765,770.0149 1037.3805,771.7099 1042.2295,771.7099 C1046.9795,771.7099 1051.0425,770.0149 1054.4165,766.6229 C1057.7905,763.2319 1059.4795,759.1619 1059.4795,754.4109 C1059.4795,749.6279 1057.7905,745.5489 1054.4165,742.1739 C1051.0425,738.7999 1046.9635,737.1119 1042.1805,737.1119 C1037.4625,737.1119 1033.3995,738.7919 1029.9925,742.1489 C1026.5845,745.5089 1024.8815,749.5139 1024.8815,754.1649 C1024.8815,759.0799 1026.5605,763.2319 1029.9185,766.6229" id="Fill-5" fill="#3C3F3E"></path>
                <mask id="mask-2" fill="white">
                    <use xlink:href="#path-1"></use>
                </mask>
                <g id="Clip-8"></g>
                <path d="M514.984,912.678 L901.927,912.678 L901.927,503.762 L514.984,503.762 L514.984,912.678 Z M508.881,918.78 L908.03,918.78 L908.03,497.659 L508.881,497.659 L508.881,918.78 Z" id="Fill-7" fill="#313433" mask="url(#mask-2)"></path>
                <path d="M708.6616,423.3026 C550.7646,423.3026 422.3056,551.7606 422.3056,709.6586 C422.3056,867.5556 550.7646,996.0146 708.6616,996.0146 C866.5586,996.0146 995.0176,867.5556 995.0176,709.6586 C995.0176,551.7606 866.5586,423.3026 708.6616,423.3026 M708.6616,1002.1166 C669.1816,1002.1166 630.8806,994.3846 594.8226,979.1336 C559.9956,964.4036 528.7196,943.3166 501.8616,916.4576 C475.0036,889.6006 453.9166,858.3236 439.1866,823.4976 C423.9356,787.4406 416.2026,749.1386 416.2026,709.6586 C416.2026,670.1776 423.9356,631.8776 439.1866,595.8196 C453.9166,560.9926 475.0036,529.7166 501.8616,502.8596 C528.7196,476.0006 559.9956,454.9136 594.8226,440.1836 C630.8806,424.9326 669.1816,417.1996 708.6616,417.1996 C748.1416,417.1996 786.4426,424.9326 822.5006,440.1836 C857.3266,454.9136 888.6026,476.0006 915.4616,502.8596 C942.3186,529.7166 963.4056,560.9926 978.1366,595.8196 C993.3876,631.8776 1001.1206,670.1776 1001.1206,709.6586 C1001.1206,749.1386 993.3876,787.4406 978.1366,823.4976 C963.4056,858.3236 942.3186,889.6006 915.4616,916.4576 C888.6026,943.3166 857.3266,964.4036 822.5006,979.1336 C786.4426,994.3846 748.1416,1002.1166 708.6616,1002.1166" id="Fill-9" fill="#313433" mask="url(#mask-2)"></path>
                <path d="M708.6616,322.4062 C495.1296,322.4062 321.4096,496.1272 321.4096,709.6582 C321.4096,923.1902 495.1296,1096.9112 708.6616,1096.9112 C922.1926,1096.9112 1095.9136,923.1902 1095.9136,709.6582 C1095.9136,496.1272 922.1926,322.4062 708.6616,322.4062 M708.6616,1103.0132 C655.5596,1103.0132 604.0456,1092.6132 555.5496,1072.1002 C508.7076,1052.2892 466.6416,1023.9262 430.5176,987.8022 C394.3936,951.6782 366.0316,909.6122 346.2196,862.7712 C325.7066,814.2742 315.3066,762.7592 315.3066,709.6582 C315.3066,656.5572 325.7066,605.0432 346.2196,556.5462 C366.0316,509.7052 394.3936,467.6382 430.5176,431.5142 C466.6416,395.3902 508.7076,367.0292 555.5496,347.2172 C604.0456,326.7042 655.5596,316.3032 708.6616,316.3032 C761.7636,316.3032 813.2776,326.7042 861.7736,347.2172 C908.6146,367.0292 950.6816,395.3902 986.8056,431.5142 C1022.9296,467.6382 1051.2916,509.7052 1071.1026,556.5462 C1091.6156,605.0432 1102.0156,656.5572 1102.0156,709.6582 C1102.0156,762.7592 1091.6156,814.2742 1071.1026,862.7712 C1051.2916,909.6122 1022.9296,951.6782 986.8056,987.8022 C950.6816,1023.9262 908.6146,1052.2892 861.7736,1072.1002 C813.2776,1092.6132 761.7636,1103.0132 708.6616,1103.0132" id="Fill-10" fill="#313433" mask="url(#mask-2)"></path>
                <path d="M370.042,606.3544 L373.596,619.6314 C369.358,621.7374 366.388,625.7874 364.999,632.3764 C362.88,642.4284 368.414,650.9174 377.959,652.9284 C387.082,654.8514 396.451,649.3264 398.569,639.2744 C399.869,633.1084 398.959,627.7994 396.728,624.1534 L391.152,622.9784 L387.468,640.4644 L376.824,638.2214 L383.09,608.4874 L404.377,612.9734 C405.133,613.5734 415.054,625.1044 411.511,641.9144 C407.506,660.9204 390.649,670.1604 375.19,666.9024 C359.226,663.5374 348.216,647.5424 352.026,629.4654 C354.358,618.3994 361.229,610.4964 370.042,606.3544" id="Fill-11" fill="#3C3F3E" mask="url(#mask-2)"></path>
                <path d="M421.5317,552.3309 L397.8277,550.6839 L413.2517,568.8469 L421.5317,552.3309 Z M434.0787,553.1159 L421.3877,578.4299 L427.8277,586.0039 L421.0957,599.4329 L379.8747,550.6649 L386.9547,536.5419 L450.7317,540.3149 L443.9617,553.8219 L434.0787,553.1159 Z" id="Fill-12" fill="#3C3F3E" mask="url(#mask-2)"></path>
                <path d="M464.7793,486.326 L456.0703,496.141 L464.5933,503.704 L473.3023,493.889 C477.0843,489.628 477.5543,486.237 474.7133,483.716 C471.4853,480.85 468.5043,482.129 464.7793,486.326 M456.6293,469.63 C453.6583,466.994 450.5193,467.67 446.9093,471.738 L438.8303,480.842 L447.9993,488.979 L456.0783,479.874 C460.1463,475.29 460.0513,472.666 456.6293,469.63 M485.4353,472.803 C492.6033,479.162 494.1533,488.731 483.4953,500.741 L464.3013,522.372 L420.3943,483.41 L437.2973,464.363 C448.5843,451.642 457.1733,452.108 464.2113,458.353 C468.7303,462.365 469.0873,468.335 468.9383,469.934 C474.8503,467.563 480.7233,468.62 485.4353,472.803" id="Fill-13" fill="#3C3F3E" mask="url(#mask-2)"></path>
                <path d="M506.7031,439.6825 C512.0581,447.6285 522.7951,449.6585 530.7421,444.3035 C538.5441,439.0445 540.6941,428.3305 535.3391,420.3845 C530.0321,412.5095 519.2951,410.4795 511.4921,415.7385 C503.5451,421.0945 501.3961,431.8075 506.7031,439.6825 M546.2211,413.0515 C555.5801,426.9395 551.8911,445.8735 538.0751,455.1845 C524.1151,464.5925 505.3241,460.8075 495.9641,446.9185 C486.6531,433.1015 490.1501,414.1935 504.1101,404.7855 C517.9271,395.4745 536.9101,399.2345 546.2211,413.0515" id="Fill-14" fill="#3C3F3E" mask="url(#mask-2)"></path>
                <path d="M579.9507,380.6469 L586.0327,397.4489 L597.4777,393.3059 C602.0237,391.6609 604.2947,386.5229 602.6197,381.8969 C600.9747,377.3509 595.9417,374.8579 591.4757,376.4749 L579.9507,380.6469 Z M616.0137,377.0479 C618.8927,385.0029 617.4357,393.1499 612.6567,398.4609 L630.0437,410.9869 L613.4847,416.9809 L600.2397,406.2609 L590.4987,409.7869 L595.4657,423.5049 L582.1527,428.3239 L562.1717,373.1279 L588.8767,363.4609 C600.0787,359.4049 611.6647,365.0349 616.0137,377.0479 Z" id="Fill-15" fill="#3C3F3E" mask="url(#mask-2)"></path>
                <polygon id="Fill-16" fill="#3C3F3E" mask="url(#mask-2)" points="759.4399 404.3568 745.2139 403.6268 746.7509 373.7118 731.1629 402.9058 715.3849 402.0958 702.8679 371.4588 701.3329 401.3748 687.1939 400.6488 690.2029 342.0248 705.8939 342.8298 724.1179 386.8988 746.6719 344.9228 762.4489 345.7328"></polygon>
                <path d="M800.9507,385.5595 C797.8127,394.6135 802.6377,404.4175 811.6907,407.5565 C820.5827,410.6385 830.4397,405.9235 833.5787,396.8695 C836.6887,387.8965 831.8637,378.0925 822.9727,375.0105 C813.9197,371.8725 804.0617,376.5865 800.9507,385.5595 M845.9767,401.1665 C840.4917,416.9915 823.1367,425.4115 807.3937,419.9545 C791.4877,414.4405 783.2307,397.1425 788.7167,381.3185 C794.1737,365.5765 811.3927,357.0175 827.2997,362.5305 C843.0417,367.9875 851.4337,385.4245 845.9767,401.1665" id="Fill-17" fill="#3C3F3E" mask="url(#mask-2)"></path>
                <polygon id="Fill-18" fill="#3C3F3E" mask="url(#mask-2)" points="875.0444 436.41 900.9164 453.156 893.7864 464.172 856.0284 439.733 887.9264 390.453 899.8124 398.145"></polygon>
                <polygon id="Fill-19" fill="#3C3F3E" mask="url(#mask-2)" points="950.814 520.6503 941.127 510.2083 947.259 464.0143 920.93 488.4373 911.244 477.9953 954.28 438.0713 963.966 448.5143 957.899 494.6503 984.164 470.2853 993.85 480.7273"></polygon>
                <path d="M1001.3745,566.203 L1016.7055,548.052 L992.9405,549.767 L1001.3745,566.203 Z M993.3285,575.862 L980.4025,550.67 L970.4875,551.391 L963.6305,538.027 L1027.3265,533.578 L1034.5385,547.634 L993.8185,596.86 L986.9225,583.419 L993.3285,575.862 Z" id="Fill-20" fill="#3C3F3E" mask="url(#mask-2)"></path>
                <path d="M1047.9536,622.5848 L1030.4936,626.3928 L1033.0866,638.2858 C1034.1166,643.0088 1038.9086,645.9398 1043.7166,644.8918 C1048.4396,643.8618 1051.5766,639.2018 1050.5656,634.5628 L1047.9536,622.5848 Z M1046.7516,658.8098 C1038.4856,660.6118 1030.6016,658.0898 1025.9696,652.6498 L1011.2536,668.2288 L1007.5006,651.0218 L1019.8796,639.3098 L1017.6726,629.1878 L1003.4176,632.2958 L1000.4006,618.4628 L1057.7586,605.9558 L1063.8096,633.7068 C1066.3486,645.3468 1059.2356,656.0868 1046.7516,658.8098 Z" id="Fill-21" fill="#3C3F3E" mask="url(#mask-2)"></path>
                <polygon id="Fill-22" fill="#3C3F3E" mask="url(#mask-2)" points="441.5107 875.245 429.9147 881.386 415.4907 854.15 406.5657 858.877 418.6047 881.611 407.7717 887.349 395.7317 864.614 386.8057 869.341 401.2297 896.577 389.6327 902.718 368.5837 862.971 420.4617 835.497"></polygon>
                <polygon id="Fill-23" fill="#3C3F3E" mask="url(#mask-2)" points="447.9429 976.2479 438.5239 965.5619 445.8259 919.5379 418.8859 943.2859 409.4679 932.6009 453.5029 893.7819 462.9219 904.4679 455.6849 950.4359 482.5589 926.7439 491.9779 937.4299"></polygon>
                <path d="M548.8667,993.6923 L535.2357,991.9323 C534.8977,987.2113 532.2817,982.9243 526.7157,979.1343 C518.2227,973.3533 508.2677,975.2443 502.7787,983.3083 C497.5317,991.0153 499.0787,1001.7823 507.5717,1007.5633 C512.7807,1011.1093 518.0377,1012.2863 522.2587,1011.6083 L525.4647,1006.8983 L510.6927,996.8423 L516.8137,987.8503 L541.9337,1004.9513 L529.6907,1022.9343 C528.8487,1023.4053 514.4107,1028.1973 500.2097,1018.5303 C484.1527,1007.5993 482.0157,988.4953 490.9057,975.4353 C500.0877,961.9483 519.0677,957.8453 534.3397,968.2423 C543.6877,974.6053 548.3867,983.9653 548.8667,993.6923" id="Fill-24" fill="#3C3F3E" mask="url(#mask-2)"></path>
                <polygon id="Fill-25" fill="#3C3F3E" mask="url(#mask-2)" points="566.9106 1053.0331 553.9146 1047.4151 577.2106 993.5301 590.2056 999.1491"></polygon>
                <polygon id="Fill-26" fill="#3C3F3E" mask="url(#mask-2)" points="657.2822 1078.3778 643.3622 1075.3578 621.9542 1033.9668 614.3402 1069.0628 600.4202 1066.0418 612.8662 1008.6738 626.7862 1011.6938 648.2122 1053.0018 655.8072 1017.9898 669.7282 1021.0098"></polygon>
                <polygon id="Fill-27" fill="#3C3F3E" mask="url(#mask-2)" points="738.4849 1021.5214 738.7509 1034.6394 707.9389 1035.2624 708.1429 1045.3614 733.8629 1044.8404 734.1099 1057.0964 708.3909 1057.6164 708.5939 1067.7144 739.4059 1067.0914 739.6719 1080.2094 694.7059 1081.1194 693.5189 1022.4304"></polygon>
                <polygon id="Fill-28" fill="#3C3F3E" mask="url(#mask-2)" points="805.2349 1007.7606 808.3299 1020.5126 778.3799 1027.7796 780.7619 1037.5946 805.7609 1031.5286 808.6529 1043.4416 783.6529 1049.5076 786.0349 1059.3236 815.9839 1052.0556 819.0779 1064.8076 775.3709 1075.4126 761.5279 1018.3666"></polygon>
                <path d="M844.7339,1005.6493 L852.6739,1021.6573 L863.5789,1016.2493 C867.9099,1014.1003 869.5879,1008.7393 867.4009,1004.3313 C865.2529,1000.0013 859.9689,998.0913 855.7159,1000.2023 L844.7339,1005.6493 Z M880.1619,998.0023 C883.9209,1005.5813 883.3919,1013.8413 879.2429,1019.6573 L897.9339,1030.1413 L882.1569,1037.9663 L867.7859,1028.8093 L858.5049,1033.4133 L864.9879,1046.4833 L852.3039,1052.7743 L826.2189,1000.1843 L851.6639,987.5643 C862.3369,982.2703 874.4839,986.5563 880.1619,998.0023 Z" id="Fill-29" fill="#3C3F3E" mask="url(#mask-2)"></path>
                <polygon id="Fill-30" fill="#3C3F3E" mask="url(#mask-2)" points="936.6245 1002.8124 925.2705 1011.2684 890.2075 964.1904 901.5615 955.7344"></polygon>
                <polygon id="Fill-31" fill="#3C3F3E" mask="url(#mask-2)" points="1003.7466 937.3358 994.1546 947.8658 947.6086 945.6378 974.1586 969.8198 964.5666 980.3498 921.1696 940.8218 930.7616 930.2918 977.2426 932.4608 950.7576 908.3378 960.3496 897.8078"></polygon>
                <path d="M1009.9849,835.0829 L1009.7419,848.8249 C1005.0869,849.6819 1001.1149,852.7559 997.9639,858.7059 C993.1559,867.7849 996.1339,877.4709 1004.7559,882.0359 C1012.9949,886.3989 1023.5239,883.6719 1028.3319,874.5939 C1031.2809,869.0239 1031.8699,863.6699 1030.7299,859.5499 L1025.6949,856.8839 L1017.3319,872.6749 L1007.7189,867.5849 L1021.9409,840.7299 L1041.1659,850.9119 C1041.7269,851.6969 1048.0849,865.5169 1040.0449,880.6989 C1030.9539,897.8639 1012.2029,902.0979 998.2419,894.7049 C983.8229,887.0679 977.6499,868.6579 986.2959,852.3319 C991.5889,842.3379 1000.3719,836.6349 1009.9849,835.0829" id="Fill-32" fill="#3C3F3E" mask="url(#mask-2)"></path>
                <path d="M359.04,766.6229 C362.398,770.0149 366.501,771.7099 371.351,771.7099 C376.101,771.7099 380.164,770.0149 383.538,766.6229 C386.912,763.2319 388.6,759.1619 388.6,754.4109 C388.6,749.6279 386.912,745.5489 383.538,742.1739 C380.164,738.7999 376.084,737.1119 371.301,737.1119 C366.583,737.1119 362.521,738.7919 359.114,742.1489 C355.706,745.5089 354.003,749.5139 354.003,754.1649 C354.003,759.0799 355.681,763.2319 359.04,766.6229" id="Fill-33" fill="#3C3F3E" mask="url(#mask-2)"></path>
            </g>
        </g>
    </g>
</svg>